<svg xmlns="http://www.w3.org/2000/svg" fill="none" preserveAspectRatio="none" viewBox="0 0 555 342" class="sc-34b27cf0-3 haMBpk"><path fill="#2E334E" d="M546.408 337.648c-.131.498-.219.996-.35 1.479-.219 1.012-1.402 1.51-4.163 1.51-12.487-.015-25.018-.015-37.505-.155-11.829-.125-23.659-.421-35.489-.623-28.26-.498-56.521-.841-84.781-.576-17.131.155-31.835-1.876-48.967-1.456-18.708.451 194.891 1.074 176.226 1.619-14.766.436-30.403-1.168-45.169-.747-13.845.389-27.69.732-41.58 1.059-17.394.404-36.106-.343-53.544.015-9.113.187-18.271.327-27.384.42-29.268.296-58.58.623-87.847.81-40.792.265-81.539.42-122.33.623-20.33.109-40.66.311-61.033.358-7.711.015-15.466-.312-23.178-.374-5.477-.047-10.953.016-16.474.094-5.39.062-10.778.264-16.211.295-8.15.032-12.575-1.152-14.503-3.954-2.585-3.705-2.234-7.504-1.884-11.272.395-4.639.833-281.506 1.359-286.145.57-5.138 1.49-10.26 1.752-15.398.307-5.87-.044-11.738 0-17.608 0-1.401-.57-2.787 1.534-4.172 1.796-1.183 4.075-1.76 7.667-1.775 13.145-.078 26.333-.078 39.477-.218C70.784 1.255 89.492.974 108.245.71 150.657.087 193.113-.21 235.569.165c32.729.28 65.458.794 98.187 1.074 33.212.296 66.423.467 99.634.623 38.338.187-155.502.311-117.164.482 37.812.172 75.58.467 113.391.467 23.616 0 47.188-.42 70.76-.731 13.495-.171 26.99-.514 40.485-.779 5.52-.109 7.799.312 9.332 2.227 1.315 1.619 2.498 3.3 2.585 4.966.394 6.025.394 12.066.307 18.09-.044 2.648-1.227 5.294-1.096 7.94.132 3.115 1.078 284.037 1.472 287.135.658 4.795 1.052 9.606 1.534 14.401.088.887-1.227 1.339-3.681 1.417-1.489.046-3.067.109-4.907.171M388.217 3.979v.14c-41.273 0-82.502-.078-123.775.016-60.945.124-121.891.405-182.836.545-22.302.046-44.603-.11-66.905-.172-1.139 0-2.234.016-3.373.047-1.71.031-2.323.312-2.279.95.395 3.705.745 7.426.876 11.131.439 12.144 2.322 296.468 6.44 308.518 1.009 2.943 3.024 5.854 5.083 8.734 1.271 1.806 4.25 3.347 9.114 4.235 6.221 1.136 12.837 1.775 19.935 1.619 16.737-.389 33.518-.794 50.255-1.137 21.25-.42 42.456-.871 63.706-1.152 26.288-.358 52.621-.576 78.909-.809 32.292-.296 64.539-.498 96.83-.81 23.791-.233 47.538-.56 71.329-.856.964-.016 3.553.467 4.517.358 1.621-.171 2.979.016 4.6 0 17.176-.218 34.307-.374 51.482-.56 27.866-.327-175.572 1.479-147.706 1.058 25.412-.389 48.397 1.394 73.853.973 20.111-.327 40.266-.607 60.42-.716 26.858-.124 53.76-.078 80.618-.062 2.454 0 3.286-.265 3.286-1.106 0-1.058.307-2.117.526-3.176.877-4.125 1.99-286.075 2.822-290.216.482-2.445 1.49-4.904 1.052-7.333-1.271-7.177-2.848-14.339-4.908-21.485-.657-2.366-2.935-4.702-4.819-7.006-.964-1.214-3.637-1.712-7.361-1.666-9.595.125-19.234.172-28.83.218-26.025.14-52.051.234-78.12.42-32.861.219-65.678.265-98.539-.108-26.595-.312 179.03-.467 152.435-.56-29.487-.11-59.062-.032-88.637-.032M107.543 340.084c0 .047-.044.109-.044.156h1.622c18.489-.124 36.935-.249 55.425-.358 37.68-.218 75.404-.374 113.084-.654 24.887-.187 49.817-.498 74.703-.794 11.567-.14 23.09-.358 34.657-.576 10.91-.202 23.094.701 34.004.452 10.647-.249 21.25-.561 32.247-.857-.526-.062-.701-.093-.876-.093-18.665.171-38.604-.794-57.269-.592-19.497.203-38.951.499-58.448.685-31.327.296-62.698.53-94.025.794-16.781.14-33.562.249-50.387.452-17.438.202-34.876.467-52.27.747-10.866.171-21.645.42-32.423.638m-77.2.281c.087-.125.175-.265.306-.39-4.381-.762-8.368-1.728-10.471-3.3-2.016-1.479-3.9-3.036-4.951-4.624-4.47-6.663-5.302-285.725-6.879-292.529-.35-1.588-.745-3.16-1.095-4.748C6.42 38.526 5.85 314.489 5.5 318.242c-.394 4.639-.876 9.278-.789 13.918.044 1.93 1.008 3.892 2.19 5.792 1.096 1.759 3.857 2.382 8.94 2.397 4.819.031 9.682.016 14.502.016M61.889 3.107c77.507-.233 155.015-.467 229.192-.7-74.221-1.433-151.728-.841-229.192.7M549.1 21.23c.087-.685.263-1.37.263-2.055-.088-2.288 0-4.577-.439-6.85-.525-2.569-1.226-5.138-2.409-7.675-.877-1.838-3.199-2.149-8.194-1.573 10.165 5.543 8.369 12.003 10.779 18.153m-41.247 316.435c2.979.342 6.44-.109 6.44 1.401h27.165c.176-.545.307-.95.482-1.401zm41.974-13.063h-.745l-2.235 11.319c3.856.171 3.9.156 3.856-1.012-.044-.763-.044-1.526-.131-2.289-.263-2.677-.482-5.355-.745-8.018m-100.247 13.312c.219.031.263.046.263.046 16.299.296 32.597.576 48.896.872-16.167-1.432-32.554-1.012-49.159-.918"></path></svg>