<svg xmlns="http://www.w3.org/2000/svg" fill="none" viewBox="0 0 517 62" class="sc-34b27cf0-2 jlJbha"><path fill="#FFC046" d="m244.843 59.184-.106-.061s0-.045-.083 0l-.045-.053a1 1 0 0 1-.076-.212l-.129-.454c-.045-.151-.09-.34-.136-.522-.045-.181 0-.22 0-.34l.061-.37c.113-.515.242-1.03.34-1.514l.114-.56.068-.378q.282-1.532.348-3.087c.038-.757-.046-1.513-.061-2.27a32 32 0 0 0-1.278-8.057c-.34-1.184-.77-2.34-1.286-3.458a44 44 0 0 1-1.915-4.297c-.158-.469.25-.635.863-.492a3.37 3.37 0 0 1 1.982 1.37c.227.348.454.703.658 1.074l.326.545c.09.189.174.378.257.575.348.756.651 1.513.938 2.345a27.4 27.4 0 0 1 1.218 4.933c.361 2.043.614 4.104.757 6.173a28 28 0 0 1-.121 3.435 26 26 0 0 1-.227 1.703l-.068.423-.046.182-.098.37-.129.485a.4.4 0 0 0 0 .12h.326l1.081-.18a31 31 0 0 1 6.303-.41c1.633.014 3.264.14 4.879.379.356.06.712.098 1.067.19 1.317.34 1.649.703 1.657 1.46q.017.26 0 .521c-.091.553-.757.757-1.634.658a44.4 44.4 0 0 0-8.111-.65q-1.542.044-3.071.257l-.757.121c-.469.083-1.014.197-1.513.325a6 6 0 0 1-.756.175l-.371.045h-.31a.5.5 0 0 1-.258-.09l-.219-.114-.439-.25z"></path><path fill="#FFC046" d="M244.957 36.032a39.5 39.5 0 0 1 2.269 12.408c.046 1.513.144 3.026.091 4.464-.045 1.286-.121 2.572-.128 3.73v.446a2 2 0 0 0 0 .325.525.525 0 0 0 .363.507q.347.035.696 0l1.891-.197a92 92 0 0 1 3.874-.408c2.335-.24 4.682-.33 7.028-.272 1.571.042 3.128.296 4.63.756.771.277 1.505.645 2.187 1.097a6.4 6.4 0 0 1 1.717 1.8c.553.894 0 1.06-.983 1.09q-.941.036-1.869.197a6 6 0 0 1-.976 0 5.3 5.3 0 0 1-.968-.114c-.28-.075-.575-.113-.87-.173-.295-.061-.59-.13-.885-.197a19 19 0 0 0-1.884-.242 33 33 0 0 0-4.003-.068 74 74 0 0 0-4.191.295l-4.653.438a7.2 7.2 0 0 1-2.209 0 4 4 0 0 1-.484-.143l-.121-.053h-.061l-.234-.114a1.8 1.8 0 0 1-.439-.302 2.2 2.2 0 0 1-.363-.386 4.14 4.14 0 0 1-.878-1.937 6.5 6.5 0 0 1-.166-1.112 5 5 0 0 1-.053-.56v-.409c-.061-1.96 0-3.73 0-5.507a39.7 39.7 0 0 0-1.377-11.349 30.2 30.2 0 0 0-2.701-6.46c-.174-.303-.341-.614-.537-.909l-.28-.454c-.152-.234-.295-.461-.454-.68-.726-.939-1.415-1.854-2.096-2.717l-.946-1.717-.476-1.158c0-.105-.136-.166-.053-.325a1.1 1.1 0 0 1 .333-.272q.362-.199.756-.318a7 7 0 0 1 1.733-.31c.905-.043 1.812.023 2.701.196q1.479.252 2.92.666l.757.242.189.068.136.046.272.106c.371.128.757.287 1.09.446q1.078.503 2.073 1.158.9.572 1.687 1.293.624.572 1.112 1.264c.21.328.359.692.439 1.074a2 2 0 0 1 0 .863 3.4 3.4 0 0 1-.394.756q-.173.305-.378.59c-.355.424-1.725.106-2.837-.824a15.6 15.6 0 0 0-2.572-1.945 12 12 0 0 0-1.423-.756 10 10 0 0 0-.756-.333l-.099-.038h-.09c-.136.083 0 .159 0 .151 0 0 0-.045.045.084l.333.53c.227.34.416.718.62 1.073a34 34 0 0 1 2.119 4.54z"></path><path fill="#FFC046" d="M263.758 31.773a17 17 0 0 1-.265-1.165l-.121-.583-.083-.476-.189-1.302a73 73 0 0 1-.288-2.587c-.083-.863-.136-1.718-.189-2.565l-.045-.643v-.5369999999999999c0-.348-.076-.53-.061-.916v-.68a3 3 0 0 0 0-.379c0-.06-.053-.136-.083-.113-.03.022-.046 0-.068.045a3.5 3.5 0 0 0-.537.689c-.159.226-.333.506-.522.832l-.296.522-.635 1.225-2.671 5.19a32 32 0 0 1-1.876 3.291q-.551.796-1.203 1.514c-.464.503-.99.946-1.566 1.316-.757.484-1.097-.34-1.188-1.385a7 7 0 0 1 0-.756 5.4 5.4 0 0 1 .061-.855c.082-.578.297-1.13.628-1.611a68 68 0 0 0 3.503-6.114q.885-1.672 1.717-3.313c.522-1.06 1.014-2.104 1.513-3.08s.999-1.944 1.513-2.723l.363-.613.197-.265q.087-.1.197-.174l.37-.333.371-.348c.106-.075.212-.12.31-.196q.29-.195.598-.356l.28-.144a.5.5 0 0 1 .424-.06c.235.11.437.283.582.5q.232.297.431.62c.401.67.659 1.418.757 2.194.189 1.24.257 2.708.371 4.077l.28 3.458c.136 1.65.317 3.283.575 4.895l.272 1.642c.068.386.159.756.265 1.203.068.25.144.507.234.756.091.25.152.416.235.628a.1.1 0 0 0 .013.035q.011.015.03.023a.07.07 0 0 0 .07-.012l.091-.106c.053-.084.106-.16.151-.242l.606-1.052c.204-.363.431-.757.666-1.12l.559-.893.681-1.013a24.5 24.5 0 0 1 5.077-5.78q.683-.562 1.445-1.014a4.6 4.6 0 0 1 2.27-.757 1.61 1.61 0 0 1 1.271.757q.251.296.454.628c.363.756-.22 1.55-1.256 2.27a22.2 22.2 0 0 0-4.199 3.782 27 27 0 0 0-1.816 2.353 38 38 0 0 0-.84 1.279l-.234.378-.432.756c-.287.492-.559 1-.832 1.514a19.3 19.3 0 0 1-1.884 3.147 2.9 2.9 0 0 1-.908.703c-.235.127-.491.211-.756.25a3.7 3.7 0 0 1-.757 0 4 4 0 0 1-.423-.076 2 2 0 0 1-.364-.136 2.9 2.9 0 0 1-1.513-1.513 29 29 0 0 1-1.513-4.433zM272.587 44.808c.332-.93.696-1.846 1.051-2.754.356-.907.757-1.815 1.09-2.723.257-.658.416-1.347.711-1.998.983-2.27 2.065-4.539 3.071-6.809.454-.998.833-2.035 1.196-3.026a13 13 0 0 1 1.853-3.783c.273-.355.666-.143 1.007.386.427.648.624 1.42.56 2.194l-.197 1.067a10 10 0 0 1-.318.968 29 29 0 0 1-.757 1.983 46 46 0 0 1-1.687 3.903 17 17 0 0 0-.877 2.437c-.242.832-.469 1.68-.757 2.504l-.877 2.716-.84 2.724c-.31 1.127-.651 2.27-.946 3.374a35 35 0 0 0-1.067 5.16 17 17 0 0 0 0 2.012c.046.666.106 1.309.136 1.96 0 .287.053.567.076.84.083 1.028-.287 1.376-1.218 1.702-.219.068-.431.166-.651.219-.711.181-1.369-.227-1.747-1.112a23 23 0 0 1-.326-1.006c-.098-.34-.143-.666-.211-1.007s-.114-.68-.159-1.029a5.4 5.4 0 0 1-.076-1.036c.026-1.363.163-2.722.409-4.063q.242-1.487.635-2.943c.227-.976.499-1.93.817-2.875zM237.028 13.32c.105.377.146.768.121 1.158.003.391-.072.78-.219 1.142a6 6 0 0 1-.507 1.022q-.336.468-.757.862c-.189.197-.408.37-.605.568a7 7 0 0 1-.704.469 5.235 5.235 0 0 1-5.863-1.007l-.492-.552a6 6 0 0 1-.423-.598 3.9 3.9 0 0 1-.424-1.361 3.3 3.3 0 0 1 0-.938c.064-.31.174-.608.325-.886a4.2 4.2 0 0 1 .537-.665q.314-.25.681-.409c.311-.129.598.416.84 1.029.129.31.25.62.341.877.09.258.234.44.196.507-.038.069.046.099 0 .13-.045.03.053 0 .068 0h.038a.1.1 0 0 1 .005.022.1.1 0 0 1-.005.022c-.045.069-.083.265.136.606a.59.59 0 0 0 .507.272q.257-.036.5-.129a1.51 1.51 0 0 0 1.134-.93.972.972 0 0 0-.234-.893 1.64 1.64 0 0 0-1.513-.582 1.44 1.44 0 0 0-.961.9q-.033.112-.083.22a.4.4 0 0 1-.197.143 1.1 1.1 0 0 1-.318 0 3 3 0 0 1-.862-.242c-.174-.068-.341-.114-.5-.182a1.17 1.17 0 0 1-.597-.53 1.5 1.5 0 0 1-.182-.922l.114-.386c.06-.136.151-.28.227-.424.162-.3.378-.57.635-.794q.387-.364.832-.65.464-.266.961-.462a5.4 5.4 0 0 1 2.073-.31 6.3 6.3 0 0 1 1.907.416 5 5 0 0 1 1.188.635q.236.213.491.401.27.172.477.416c.549.587.958 1.29 1.195 2.058zM265.74 5.202q-.082.571-.303 1.105a4.5 4.5 0 0 1-.643.93 6.3 6.3 0 0 1-1.748 1.355 3.8 3.8 0 0 1-1.566.431c-2.035.09-3.639-2.194-3.669-3.647a6 6 0 0 1 0-1.112c.025-.393.139-.776.333-1.12.206-.48.561-.88 1.013-1.142a2.07 2.07 0 0 1 1.332-.234c.272.045.257.506.182 1.02-.076.515-.152 1.113-.182 1.25a.16.16 0 0 0-.014.13.2.2 0 0 0 .035.058q.023.025.055.038a.28.28 0 0 1 .143.136q.077.167.137.34v.25c0 .084-.046.122-.053.205a.33.33 0 0 0 .181.37 1.16 1.16 0 0 0 .965-.012 1.14 1.14 0 0 0 .435-.366.8.8 0 0 0 .053-.794 1.36 1.36 0 0 0-1.173-.87c-.212 0-.416.09-.439.22v.045a1 1 0 0 1-.053-.099l.114.083c.113.084.128.084.204.106l.098.038a2 2 0 0 1-.37.136c-.303.068-.621.129-.999.19l-.477.098a1.4 1.4 0 0 1-.756-.106 2.7 2.7 0 0 1-.492-.25c-.204-.113-.227-.272-.31-.446a2.1 2.1 0 0 1-.129-.9c.047-.382.166-.752.348-1.09a3.13 3.13 0 0 1 2.066-1.46 4 4 0 0 1 1.974.076q.392.114.757.295.379.18.704.446c1.513 1.044 2.496 2.693 2.269 4.282zM286.992 13.404a4.1 4.1 0 0 1-2.051.976l-.31.037a1 1 0 0 1-.227 0h-.424a4.3 4.3 0 0 1-1.49-.43 2.6 2.6 0 0 1-.477-.296 2.31 2.31 0 0 1-.855-2.459 3.4 3.4 0 0 1 .379-.93q.405-.673.93-1.256c.28-.318.5-.65.757-.984a2.08 2.08 0 0 1 1.309-1.066c.249-.053.431.469.658.983.227.515.545 1.021.492 1.188a5.5 5.5 0 0 1-1.014 1.823c-.144.136-.166.31-.129.348h-.234q-.194.015-.378.076a.6.6 0 0 0-.25.106c.104-.135.174-.294.204-.462q.039-.164.053-.333h.174c-.038-.28.053.386.045.318v.038-.06a2 2 0 0 1-.068-.144.76.76 0 0 0 .424-.31 1.25 1.25 0 0 0 .28-.976c0-.061-.061-.069-.098-.084s-.038 0-.061 0a.5.5 0 0 0 .091-.053c.159-.106.113-.136.06 0v.099a1 1 0 0 0-.045.196c0 .583-.076-.272-.265-1.074l-.144-.567a2.05 2.05 0 0 1-.037-.908 2 2 0 0 1 .151-.5.64.64 0 0 1 .31-.332c.223-.11.464-.18.711-.205q.203-.035.409-.038.244.019.484.069c.337.064.654.21.923.423.293.193.549.437.757.719.62.875.868 1.961.688 3.019a5.48 5.48 0 0 1-1.619 3.117z"></path><path fill="url(#modal-frame_svg__a)" fill-rule="evenodd" d="M13.926 34.279a2 2 0 0 1-.873 3.572c-.752.125-3.556.363-6.094.47-1.282.055-2.58.08-3.576.034-.48-.023-.992-.065-1.422-.16a3 3 0 0 1-.872-.328c-.283-.165-1.176-.794-1.082-2.014.038-.502.215-.997.355-1.345.16-.398.369-.832.6-1.271a31 31 0 0 1 1.718-2.838c.64-.945 1.35-1.888 2.02-2.626a9 9 0 0 1 1.066-1.015c.3-.235.894-.658 1.658-.738a3.19 3.19 0 0 1 2.826 1.13c.564.665.829 1.47.97 2.078.14.597.205 1.226.237 1.772A2 2 0 0 1 13 30.272c2.968 0 6.023.226 9 .447 1.512.112 3.005.223 4.455.302a692 692 0 0 1 58.236 5.648c1.842.257 3.853.628 5.85.996 1.396.258 2.785.514 4.103.73 3.344.545 6.562.89 9.541.653q.209-.018.385-.058c-.411-.44-.76-.915-.998-1.424-.353-.75-.569-1.85.059-2.893.588-.974 1.59-1.339 2.342-1.467.791-.136 1.677-.084 2.587.081 3.723.677 7.367 1.654 10.92 2.607l.415.112c3.713.995 7.334 1.952 11.014 2.575 8.387 1.419 16.821 1.415 25.505 1.412h1.292c.223 0 .749-.013 1.421-.034a27 27 0 0 1-2.396-2.42c-.414-.481-.768-.967-1.014-1.456-.233-.465-.472-1.137-.353-1.901a2.55 2.55 0 0 1 1.269-1.83c.515-.298 1.056-.393 1.441-.43.782-.073 1.647.038 2.324.157.713.127 1.393.296 1.861.42 10.264 2.737 20.563 5.152 30.982 7.17q1.094.214 2.158.43c1.956.397 3.844.779 5.72 1.024q-.275-.198-.559-.394c-1.095-.754-2.205-1.432-3.318-2.113-.512-.313-1.024-.626-1.535-.947a2 2 0 1 1 2.125-3.388c.432.27.898.556 1.385.853l.002.002c1.155.706 2.423 1.482 3.609 2.298 1.709 1.177 3.441 2.562 4.769 4.245.225.285.593.892.465 1.71a2.18 2.18 0 0 1-.966 1.48c-.518.34-1.109.422-1.324.451-.598.081-1.29.069-1.598.06-3.318-.088-6.626-.76-9.701-1.385a216 216 0 0 0-1.993-.399c-10.521-2.037-20.91-4.474-31.252-7.231l-.054-.015-.079-.02c1.417 1.366 3.096 2.658 4.713 3.698.14.09.98.654.917 1.794a2 2 0 0 1-.895 1.559l-.004.003a2 2 0 0 1-.633.274c-.128.032-.241.046-.271.05h-.003c-.092.011-.194.02-.279.026-.183.013-.437.028-.727.043-.587.03-1.383.063-2.206.095-1.627.063-3.449.12-4.001.12l-1.386.001h-.002c-8.602.005-17.347.009-26.076-1.468-3.893-.66-7.688-1.665-11.382-2.656l-.36-.096c-3.374-.905-6.664-1.787-9.996-2.427.296.435.505.944.563 1.52.094.958-.265 1.78-.748 2.374-.907 1.117-2.403 1.682-3.815 1.795-3.469.277-7.069-.133-10.504-.693-1.524-.248-2.966-.516-4.364-.775-1.88-.349-3.682-.683-5.498-.937a688 688 0 0 0-57.9-5.615 233 233 0 0 1-4.75-.321c-2.561-.191-5.049-.377-7.563-.415m-2.624-.95c-.067.158-.22.466-.537.743.473-.04.873-.078 1.167-.11a2 2 0 0 1-.63-.633m-3.39.557c.065.072.204.22.421.36-.504.03-1.025.057-1.543.079-.67.028-1.311.047-1.888.052.32-.553.694-1.15 1.09-1.734.316-.468.636-.911.943-1.307.057.247.115.48.17.69.11.409.263.937.442 1.305.038.079.155.32.366.555m-5.086.403q-.032-.008.002 0zm4.658-1.96q0 .015 0 0m151.796 1.93.007.016z" clip-rule="evenodd"></path><path fill="url(#modal-frame_svg__b)" fill-rule="evenodd" d="M502.163 34.279a2 2 0 0 0 .872 3.572c.753.125 3.557.363 6.095.47 1.282.055 2.579.08 3.576.034.479-.023.992-.065 1.422-.16.195-.044.536-.131.872-.328.283-.165 1.176-.794 1.082-2.014-.039-.502-.215-.997-.355-1.345a14 14 0 0 0-.6-1.271 31 31 0 0 0-1.718-2.838c-.641-.945-1.349-1.888-2.02-2.626a9 9 0 0 0-1.066-1.015c-.301-.235-.894-.658-1.658-.738a3.19 3.19 0 0 0-2.826 1.13c-.564.665-.829 1.47-.971 2.078a11 11 0 0 0-.236 1.772 2 2 0 0 0-1.544-.728c-2.968 0-6.024.226-9 .447-1.513.112-3.005.223-4.455.302a692 692 0 0 0-58.236 5.648c-1.842.257-3.853.628-5.85.996-1.396.258-2.785.514-4.103.73-3.344.545-6.562.89-9.541.653a3 3 0 0 1-.385-.058c.411-.44.76-.915.998-1.424.353-.75.569-1.85-.059-2.893-.588-.974-1.59-1.339-2.342-1.467-.791-.136-1.677-.084-2.587.081-3.723.677-7.367 1.654-10.92 2.607l-.416.112c-3.713.995-7.333 1.952-11.013 2.575-8.387 1.419-16.821 1.415-25.506 1.412h-1.291c-.223 0-.749-.013-1.421-.034a27 27 0 0 0 2.395-2.42c.415-.481.769-.967 1.014-1.456.234-.465.472-1.137.354-1.901a2.55 2.55 0 0 0-1.269-1.83c-.515-.298-1.057-.393-1.441-.43-.782-.073-1.648.038-2.324.157-.714.127-1.393.296-1.861.42-10.264 2.737-20.563 5.152-30.982 7.17q-1.094.214-2.158.43c-1.957.397-3.845.779-5.72 1.024q.275-.198.559-.394c1.095-.754 2.205-1.432 3.318-2.113.512-.313 1.024-.626 1.535-.947a1.999 1.999 0 1 0-2.126-3.388c-.431.27-.898.556-1.384.853l-.002.002c-1.155.706-2.423 1.482-3.609 2.298-1.709 1.177-3.441 2.562-4.769 4.245-.225.285-.593.892-.465 1.71.129.822.669 1.284.966 1.48.518.34 1.109.422 1.324.451.598.081 1.29.069 1.598.06 3.318-.088 6.626-.76 9.701-1.385a216 216 0 0 1 1.993-.399c10.521-2.037 20.91-4.474 31.252-7.231l.053-.015.08-.02c-1.417 1.366-3.096 2.658-4.713 3.698-.14.09-.98.654-.917 1.794a2 2 0 0 0 .895 1.559l.004.003a2 2 0 0 0 .633.274c.128.032.241.046.271.05h.003c.091.011.194.02.279.026.183.013.437.028.727.043.587.03 1.383.063 2.206.095 1.627.063 3.449.12 4.001.12l1.386.001h.002c8.602.005 17.347.009 26.076-1.468 3.893-.66 7.688-1.665 11.382-2.656l.359-.096c3.374-.905 6.665-1.787 9.997-2.427a3.26 3.26 0 0 0-.563 1.52c-.095.958.265 1.78.748 2.374.907 1.117 2.403 1.682 3.815 1.795 3.469.277 7.069-.133 10.504-.693 1.524-.248 2.966-.516 4.364-.775 1.88-.349 3.682-.683 5.498-.937a688 688 0 0 1 57.9-5.615c1.625-.088 3.201-.206 4.75-.321 2.561-.191 5.048-.377 7.563-.415m2.623-.95c.067.158.221.466.538.743a53 53 0 0 1-1.167-.11c.254-.16.47-.378.629-.633m3.39.557a2 2 0 0 1-.42.36c.504.03 1.025.057 1.543.079.669.028 1.311.047 1.888.052a29 29 0 0 0-2.033-3.041 20 20 0 0 1-.171.69c-.109.409-.262.937-.441 1.305-.038.079-.155.32-.366.555m5.087.403q.031-.008-.002 0zm-4.659-1.96q0 .015 0 0m-151.795 1.93-.007.016z" clip-rule="evenodd"></path><defs><linearGradient id="modal-frame_svg__a" x1="-6.999" x2="215.501" y1="36" y2="45" gradientUnits="userSpaceOnUse"><stop stop-color="#FFC046"></stop><stop offset="1" stop-color="#FFC046" stop-opacity="0"></stop></linearGradient><linearGradient id="modal-frame_svg__b" x1="523.088" x2="300.588" y1="36" y2="45" gradientUnits="userSpaceOnUse"><stop stop-color="#FFC046"></stop><stop offset="1" stop-color="#FFC046" stop-opacity="0"></stop></linearGradient></defs></svg>