<svg width="85" height="87" viewBox="0 0 85 87" fill="none" xmlns="http://www.w3.org/2000/svg">
<path d="M16.9688 26.0938C26.0313 19.2188 36.3438 15.7812 47.9063 15.7812C59.4375 15.7812 68.7813 19.2188 75.9375 26.0938C83.0938 32.9688 85.9688 41.2812 84.5625 51.0312C83.0938 60.75 77.8125 69.0625 68.7188 75.9688C59.5625 82.875 49.2344 86.3281 37.7344 86.3281C30.3907 86.3281 23.7813 84.8281 17.9063 81.8281C12.0625 78.8281 7.65628 74.7656 4.68753 69.6406C1.28128 63.8906 0.109402 57.6875 1.1719 51.0312C2.57815 41.2812 7.84378 32.9688 16.9688 26.0938ZM73.1719 51.0312C74.7032 46.625 74.7813 42.5625 73.4063 38.8438C72.0625 35.25 69.7969 32.1875 66.6094 29.6562C63.4844 27.2188 59.75 25.4062 55.4063 24.2188C51.125 23.0625 46.8282 22.7188 42.5157 23.1875C34.2032 24.0938 26.9063 27.1875 20.625 32.4688C14.3125 37.75 10.6407 43.9375 9.6094 51.0312C8.4219 58.7812 10.6875 65.4062 16.4063 70.9062C22.0938 76.4062 29.5469 79.1562 38.7657 79.1562C46.8594 79.1562 54.2657 76.9844 60.9844 72.6406C67.7344 68.2969 72.2969 62.875 74.6719 56.375C74.9844 55.4375 74.7657 54.4219 74.0157 53.3281C73.2657 52.2969 72.9844 51.5312 73.1719 51.0312ZM32.9063 2.51562C33.5313 1.76562 34.3125 1.32812 35.25 1.20312C37.0313 0.796875 38.2657 0.796875 38.9532 1.20312C40.2344 1.92188 41.0157 3.57812 41.2969 6.17188C41.4532 8.57812 40.8438 10.1719 39.4688 10.9531C38.2188 11.7344 36.8594 11.5938 35.3907 10.5312C33.9532 9.46875 33 8.15625 32.5313 6.59375C32.0625 5.0625 32.1875 3.70312 32.9063 2.51562ZM51.1875 10.5781C50.375 10.5781 49.5625 10.2969 48.75 9.73438C46.0625 7.82812 46 5.59375 48.5625 3.03125C50.125 1.46875 51.5938 0.890625 52.9688 1.29688C54.2188 1.70312 55.0625 2.5625 55.5 3.875C55.9375 5.34375 55.6875 6.82812 54.75 8.32812C53.75 9.82812 52.5625 10.5781 51.1875 10.5781Z" fill="#FFC046"/>
</svg>
